<?xml version="1.0" encoding="UTF-8" standalone="no"?><!-- Generator: Gravit.io --><svg xmlns="http://www.w3.org/2000/svg" xmlns:xlink="http://www.w3.org/1999/xlink" style="isolation:isolate" viewBox="0 0 24 24" width="24pt" height="24pt"><defs><clipPath id="_clipPath_fgPo7Ns9vSmG0CNKyJNzkHGPeCXRcslF"><rect width="24" height="24"/></clipPath></defs><g clip-path="url(#_clipPath_fgPo7Ns9vSmG0CNKyJNzkHGPeCXRcslF)"><rect width="24" height="24" style="fill:rgb(232,232,232)" fill-opacity="0"/><path d=" M 12 0.375 C 5.4 0.375 0 5.775 0 12.375 C 0 17.475 3.199 21.824 7.65 23.574 C 8.1 23.475 8.5 23.074 8.5 22.574 L 8.5 20.375 L 7.199 20.375 C 6.25 20.375 5.449 19.926 5.051 19.225 C 4.949 19.025 4.85 18.775 4.75 18.525 C 4.551 17.975 4.301 17.375 3.801 17.025 C 3.6 16.875 3.5 16.574 3.551 16.324 C 3.65 16.074 3.9 15.875 4.35 15.926 C 4.85 15.975 5.6 16.525 6.051 17.125 C 6.449 17.625 6.75 17.926 7.35 17.926 L 7.5 17.926 C 7.949 17.926 9.051 17.926 9.25 17.725 C 9.4 17.525 9.5 17.375 9.65 17.225 C 6.65 16.625 4.949 14.875 4.949 12.224 C 4.949 11.325 5.199 10.426 5.75 9.625 C 5.551 8.875 5.1 6.926 6.051 6.074 L 6.199 5.926 L 6.4 5.926 C 7.699 5.926 8.651 6.475 9.25 6.926 C 11 6.275 13 6.275 14.75 6.926 C 15.301 6.475 16.25 5.926 17.6 5.926 L 17.801 5.926 L 17.949 6.074 C 18.9 6.975 18.449 8.875 18.25 9.625 C 18.75 10.426 19.051 11.324 19.051 12.225 C 19.051 14.875 17.35 16.625 14.401 17.225 C 15.151 18.025 15.551 19.225 15.551 20.176 L 15.551 22.625 C 15.551 23.125 15.9 23.525 16.4 23.625 C 20.8 21.824 24 17.475 24 12.375 C 24 5.775 18.6 0.375 12 0.375 Z " fill="rgb(232,232,232)"/></g></svg>