<?xml version="1.0" encoding="UTF-8" standalone="no"?><!-- Generator: Gravit.io --><svg xmlns="http://www.w3.org/2000/svg" xmlns:xlink="http://www.w3.org/1999/xlink" style="isolation:isolate" viewBox="0 0 24 24" width="24pt" height="24pt"><defs><clipPath id="_clipPath_TrbGcleDXUVpQ0ZVrmMqfoFASrB6Bz1a"><rect width="24" height="24"/></clipPath></defs><g clip-path="url(#_clipPath_TrbGcleDXUVpQ0ZVrmMqfoFASrB6Bz1a)"><rect width="24" height="24" style="fill:rgb(232,232,232)" fill-opacity="0"/><path d=" M 21.8 0 L 2.2 0 C 1 0 0 1 0 2.2 L 0 21.8 C 0 23 1 24 2.2 24 L 21.8 24 C 23 24 24 23 24 21.8 L 24 2.2 C 24 1 23 0 21.8 0 Z  M 7 20 L 3 20 L 3 9 L 7 9 L 7 20 Z  M 5 7.7 C 3.8 7.7 3 6.898 3 5.898 C 3 4.801 3.8 4 5 4 C 6.2 4 7 4.8 7 5.8 C 7 6.898 6.2 7.7 5 7.7 Z  M 21 20 L 17 20 L 17 14 C 17 12.398 15.898 12 15.602 12 C 15.3 12 14 12.2 14 14 L 14 20 L 10 20 L 10 9 L 14 9 L 14 10.602 C 14.602 9.699 15.602 9 17.5 9 C 19.398 9 21 10.5 21 14 L 21 20 Z " fill="rgb(232,232,232)"/></g></svg>